# xmcd
#
# Track frame offsets: 
#        150
#        23782
#        46313
#        77556
#        110651
#        125305
#        149247
#        168891
#        192355
#        212561
#        232139
#
# Disc length: 3354 seconds
#
# Revision: 0
# Processed by: cddbd v1.4PL0 Copyright (c) Steve Scherf et al.
# Submitted via: ExactAudioCopy v0.90a11
#
DISCID=9a0d180b
DTITLE=Larry McCray - Blues Is My Business
DYEAR=1900
DGENRE=
TTITLE0=Best In Town
TTITLE1=Blues Is My Business
TTITLE2=That's How Strong
TTITLE3=Love Gone Bad
TTITLE4=Burglar
TTITLE5=Strong Companion
TTITLE6=You Don't Know
TTITLE7=Believe It
TTITLE8=She's A Wolf
TTITLE9=Cash Money
TTITLE10=Best Friend
EXTD=
EXTT0=
EXTT1=
EXTT2=
EXTT3=
EXTT4=
EXTT5=
EXTT6=
EXTT7=
EXTT8=
EXTT9=
EXTT10=
PLAYORDER=
